<?xml version="1.0" encoding="UTF-8"?>
<svg id="Layer_1" xmlns="http://www.w3.org/2000/svg" version="1.1" viewBox="0 0 1548.93 713.95">
  <!-- Generator: Adobe Illustrator 29.1.0, SVG Export Plug-In . SVG Version: 2.1.0 Build 142)  -->
  <defs>
    <style>
      .st0, .st1 {
        fill: #fff;
      }

      .st2 {
        fill: #20b24b;
      }

      .st1 {
        font-family: HacenTunisia, 'Hacen Tunisia';
        font-size: 97.02px;
      }
    </style>
  </defs>
  <polygon class="st2" points="626.8 343.35 783.37 123.79 939.94 343.35 1213.56 374.14 952.22 315.79 783.37 32.56 614.52 315.79 353.19 374.14 626.8 343.35"/>
  <g>
    <path class="st0" d="M203.83,603.01h-114v9.45c0,15.81-5.74,30.02-17.21,42.62-11.48,12.59-25.82,18.9-43.04,18.9h-2.1v-30.45c12.88,0,22.46-5.88,28.76-17.63,5.18-9.52,7.77-21.28,7.77-35.27v-64.66c0-18.62,5.32-33.8,15.96-45.56,12.03-13.44,27.5-20.15,46.4-20.15s35.06,6.75,47.65,20.26,18.9,30.55,18.9,51.12-6.16,38.63-18.47,51.22c-.28.28-.7.97-1.27,2.1,5.74-.28,15.96-.42,30.66-.42v18.47ZM164.99,527.86c0-13.58-2.73-24.64-8.19-33.17-6.29-10.64-15.74-15.96-28.34-15.96s-21.48,5.01-28.33,15.02c-6.87,10-10.29,23.75-10.29,41.25v49.54h37.37c13.44,0,23.44-6.43,30.02-19.32,5.18-10.07,7.77-22.53,7.77-37.36Z"/>
    <path class="st0" d="M300.19,557.46c0,7-1.48,12.88-4.42,17.63-1.82,2.94-6.03,7.49-12.62,13.65l-32.61,30.65c-1.68-8.39-7.09-17.74-16.24-28.02-9.15-10.29-16.94-15.43-23.36-15.43h-14.67v-31.49h14.04c4.75,0,13.48,6.29,26.19,18.89,4.47,4.62,11.67,12.04,21.59,22.25,2.59-3.08,3.89-6.29,3.89-9.65,0-2.8-2.31-8.89-6.94-18.27l-9.24-18.68c-7.14-14.41-10.7-24.07-10.7-28.98,0-8.53,3.41-16.66,10.22-24.35,8.62-8.39,17.25-16.72,25.89-24.98-1.97,6.29-2.95,11.76-2.95,16.37,0,5.04,3.01,13.58,9.03,25.61l13.86,27.71c6.01,12.04,9.03,21.07,9.03,27.09ZM265.97,383c-2.51,1.4-6.22,4.2-11.13,8.39l-5.46,6.72c-1.68,2.1-2.51,3.5-2.51,4.19,0,1.55.9,3.16,2.72,4.83l9.66,9.24c2.79,2.65,4.2,5.67,4.2,9.03s-1.05,6.3-3.14,8.39l-15.05,14.7c-4.46,4.34-10.58,6.51-18.38,6.51-3.49,0-6.34-.56-8.57-1.68,3.5-.7,6.86-2.86,10.08-6.51l5.46-6.29c2.65-3.08,3.99-5.46,3.99-7.14,0-1.13-1.27-2.95-3.78-5.46l-7.77-7.77c-3.5-3.5-5.25-6.78-5.25-9.87,0-3.36,1.81-6.78,5.43-10.28l12.75-12.18c3.76-3.64,9.96-5.46,18.61-5.46,2.36,0,5.09.21,8.14.63Z"/>
    <path class="st0" d="M369.89,603.01h-46.81c6.86-12.88,10.28-26.17,10.28-39.88v-136.47c0-13.71-3.43-27.01-10.28-39.88h46.81c-7.14,11.75-10.7,25.68-10.7,41.77v132.69c0,16.09,3.57,30.01,10.7,41.77Z"/>
    <path class="st0" d="M540.98,603.01h-154.3v-28.76c11.75,6.86,23.09,10.28,34,10.28h80.41v-49.12c0-15.12-2.59-27.72-7.77-37.79-6.86-12.59-17.22-18.9-31.07-18.9-11.76,0-20.79,4.34-27.08,13.02-7.43,9.66-10.86,19.11-10.29,28.34l-37.37-19.74c12.6-6.43,22.32-13.08,29.19-19.94,13.57-13.44,29.52-20.15,47.86-20.15s34.36,6.71,46.4,20.15c10.63,11.76,15.95,26.95,15.95,45.56v58.57h14.06v18.47Z"/>
    <path class="st0" d="M551.69,603.01h-19.11v-18.47h19.11v18.47Z"/>
    <path class="st0" d="M564.92,603.01h-19.11v-18.47h19.11v18.47Z"/>
    <path class="st0" d="M578.14,603.01h-19.11v-18.47h19.11v18.47Z"/>
    <path class="st0" d="M591.37,603.01h-19.11v-18.47h19.11v18.47Z"/>
    <path class="st0" d="M604.6,603.01h-19.11v-18.47h19.11v18.47Z"/>
    <path class="st0" d="M617.83,603.01h-19.11v-18.47h19.11v18.47Z"/>
    <path class="st0" d="M631.05,603.01h-19.11v-18.47h19.11v18.47Z"/>
    <path class="st0" d="M644.27,603.01h-19.11v-18.47h19.11v18.47Z"/>
    <path class="st0" d="M657.5,603.01h-19.11v-18.47h19.11v18.47Z"/>
    <path class="st0" d="M670.73,603.01h-19.11v-18.47h19.11v18.47Z"/>
    <path class="st0" d="M683.95,603.01h-19.11v-18.47h19.11v18.47Z"/>
    <path class="st0" d="M744.42,603.01h-68.44v-18.47h32.33v-156.61c0-15.68-3.57-29.53-10.7-41.57h46.82c-6.87,12.88-10.29,26.74-10.29,41.57v133.31c0,14.98,3.43,28.9,10.29,41.77Z"/>
    <path class="st0" d="M809.71,603.01h-46.81c6.86-12.88,10.28-26.17,10.28-39.88v-136.47c0-13.71-3.43-27.01-10.28-39.88h46.81c-7.14,11.75-10.7,25.68-10.7,41.77v132.69c0,16.09,3.57,30.01,10.7,41.77Z"/>
  </g>
  <text class="st1" transform="translate(119.65 686.05) scale(1.32 1)"><tspan x="0" y="0">للخدمات العامة</tspan></text>
  <g>
    <path class="st2" d="M1018.25,603.01c0,17.21-7.84,33.34-23.51,48.39-15.68,15.05-35.69,22.57-60.04,22.57s-47.79-8.74-66.97-26.24c-16.66-15.26-24.98-37.93-24.98-68.02,0-8.54.14-21.55.42-39.05v-109.92c0-15.53-3.43-29.46-10.29-41.78h46.82c-7.14,11.19-10.71,25.12-10.71,41.78v156.33c0,20.43,3.29,33.65,9.87,39.68,12.32,11.47,30.09,17.21,53.33,17.21,14.56,0,27.29-2.73,38.21-8.19,13.86-6.99,21.2-17.92,22.04-32.75h-38.84c-7.14,0-15.43-2-24.88-5.98-9.45-3.99-16.63-8.57-21.52-13.75-12.04-13.15-18.05-30.36-18.05-51.65,0-20.01,6.16-36.84,18.47-50.49,12.31-13.65,28.41-20.47,48.29-20.47,18.06,0,32.96,6.37,44.72,19.1,11.76,12.74,17.63,28.28,17.63,46.61v76.63ZM992.43,584.53v-49.12c0-14.84-2.73-27.29-8.19-37.37-6.58-12.87-16.8-19.31-30.65-19.31-24.35,0-36.53,16.52-36.53,49.54,0,15.12,2.59,27.71,7.77,37.79,6.86,12.59,17.22,18.89,31.07,18.89,3.92,0,10.08-.14,18.47-.42h18.06ZM949.81,425.4c0,3.5-1.3,6.54-3.88,9.13-2.59,2.59-5.56,3.88-8.92,3.88-8.68,0-13.02-4.33-13.02-13.01,0-3.36,1.29-6.34,3.88-8.92,2.59-2.59,5.63-3.89,9.13-3.89s6.33,1.3,8.92,3.89c2.59,2.58,3.88,5.56,3.88,8.92ZM978.99,425.4c0,3.5-1.3,6.54-3.88,9.13-2.59,2.59-5.56,3.88-8.92,3.88-8.68,0-13.02-4.33-13.02-13.01,0-3.36,1.29-6.34,3.88-8.92,2.59-2.59,5.63-3.89,9.13-3.89s6.33,1.3,8.92,3.89c2.59,2.58,3.88,5.56,3.88,8.92Z"/>
    <path class="st2" d="M1182.21,603.01h-18.47c0,18.61-5.6,34.77-16.8,48.5-11.76,14.97-26.81,22.46-45.14,22.46-32.62,0-55.36-14.77-68.23-44.3h29.6c10.92,9.52,22.81,14.28,35.69,14.28,20.29,0,33.31-13.65,39.05-40.94h-41.15c-7.14,0-15.01-1.92-23.62-5.77-8.61-3.85-15.36-8.5-20.26-13.96-12.04-13.15-18.06-30.23-18.06-51.22s6.09-36.92,18.27-50.7c12.18-13.79,28.27-20.68,48.29-20.68,18.61,0,33.94,6.72,45.98,20.15,10.92,12.04,16.38,27.22,16.38,45.56v58.15h18.47v18.47ZM1137.91,584.53v-49.12c0-14.84-2.73-27.29-8.19-37.37-6.58-12.87-16.73-19.31-30.44-19.31-24.35,0-36.53,16.52-36.53,49.54,0,15.12,2.59,27.71,7.77,37.79,6.85,12.59,17.14,18.89,30.86,18.89,4.06,0,10.22-.14,18.47-.42h18.06Z"/>
    <path class="st2" d="M1190.4,603.01h-19.1v-18.47h19.1v18.47Z"/>
    <path class="st2" d="M1340.72,603.01h-159.98v-18.47h36.11c-13.16-13.15-19.74-30.79-19.74-52.91,0-20.01,6.16-36.84,18.47-50.49,12.32-13.65,28.34-20.47,48.08-20.47s34.22,6.68,46.4,20.05c12.18,13.36,18.27,30.47,18.27,51.33s-6.79,39.04-20.37,52.48h32.75v18.47ZM1300.41,535.41c0-14.84-2.73-27.29-8.19-37.37-6.58-12.87-16.8-19.31-30.65-19.31-12.88,0-22.46,5.31-28.76,15.95-5.18,8.54-7.77,19.74-7.77,33.59,0,17.5,3.43,31.25,10.29,41.26,6.85,10,14.9,15.01,24.14,15.01h9.03c21.27-1.96,31.91-18.33,31.91-49.12ZM1277.1,425.4c0,8.68-4.27,13.01-12.81,13.01s-13.02-4.33-13.02-13.01,4.34-12.81,13.02-12.81c3.36,0,6.33,1.3,8.92,3.89,2.59,2.58,3.89,5.56,3.89,8.92Z"/>
    <path class="st2" d="M1402.65,603.01h-74.32v-18.47h21.83v-82.51c0-14.98-3.43-28.9-10.29-41.78h46.82c-7.14,12.04-10.71,25.96-10.71,41.78v82.51h26.66v18.47ZM1362.97,424.56c0,8.68-4.27,13.02-12.81,13.02s-12.81-4.34-12.81-13.02c0-3.36,1.26-6.33,3.78-8.92,2.52-2.59,5.53-3.88,9.03-3.88,8.54,0,12.81,4.27,12.81,12.8ZM1392.78,424.56c0,8.68-4.34,13.02-13.02,13.02s-12.81-4.34-12.81-13.02c0-3.36,1.29-6.33,3.88-8.92,2.59-2.59,5.56-3.88,8.92-3.88,8.68,0,13.02,4.27,13.02,12.8Z"/>
    <path class="st2" d="M1460.59,603.01h-68.44v-18.47h32.33v-156.62c0-15.67-3.57-29.53-10.71-41.57h46.82c-6.86,12.88-10.29,26.74-10.29,41.57v133.32c0,14.98,3.43,28.9,10.29,41.78Z"/>
    <path class="st2" d="M1525.88,603.01h-46.82c6.85-12.87,10.29-26.17,10.29-39.89v-136.46c0-13.72-3.43-27.01-10.29-39.89h46.82c-7.14,11.75-10.71,25.68-10.71,41.78v132.68c0,16.09,3.57,30.02,10.71,41.78Z"/>
  </g>
</svg>